<svg xmlns="http://www.w3.org/2000/svg" xmlns:xlink="http://www.w3.org/1999/xlink" fill="none" version="1.1" width="316" height="315" viewBox="0 0 316 315"><defs><clipPath id="master_svg0_39_3"><rect x="0" y="0" width="316" height="315" rx="0"/></clipPath></defs><g clip-path="url(#master_svg0_39_3)"><g><path d="M154.10370031738282,-0.5214843416534424C157.4297003173828,-0.5000487416534424,160.75370031738282,-0.5213931416534424,164.07970031738282,-0.5468749946534424C181.21870031738283,-0.5706571416534424,197.04470031738282,1.5692692583465577,213.1247003173828,7.687499258346557C214.03870031738282,8.029259258346558,214.9527003173828,8.371029258346558,215.8947003173828,8.723149258346558C235.7027003173828,16.344529258346558,252.2447003173828,27.956229258346557,267.9997003173828,42.00002925834656C268.7777003173828,42.69222925834656,269.5547003173828,43.38442925834656,270.3557003173828,44.09762925834656C296.2227003173828,68.55112925834656,314.3067003173828,106.46892925834656,316.1057003173828,142.09092925834656C316.1637003173828,144.29892925834656,316.19070031738283,146.50592925834655,316.20270031738283,148.71492925834656C316.2087003173828,149.52892925834655,316.21470031738284,150.34292925834654,316.2207003173828,151.18192925834657C316.2297003173828,152.89892925834656,316.2367003173828,154.61492925834656,316.2407003173828,156.33192925834655C316.2497003173828,158.89992925834656,316.2807003173828,161.46592925834656,316.3127003173828,164.03292925834657C316.4057003173828,178.41992925834657,314.6117003173828,192.07792925834656,310.3747003173828,205.87492925834655C310.1237003173828,206.69792925834656,309.8717003173828,207.52092925834657,309.6127003173828,208.36892925834655C304.9967003173828,222.81192925834657,298.2457003173828,235.98492925834657,288.9997003173828,247.99992925834655C288.1997003173828,249.04492925834657,287.3987003173828,250.09092925834656,286.5747003173828,251.16792925834656C280.1097003173828,259.34692925834656,280.1097003173828,259.34692925834656,275.9997003173828,260.9999292583466C272.66170031738284,258.39392925834653,269.7347003173828,255.79792925834658,266.9997003173828,252.56292925834657C263.5387003173828,248.48992925834656,259.7977003173828,244.75392925834655,255.9997003173828,240.99992925834655C251.6237003173828,236.66992925834657,247.35570031738283,232.32892925834656,243.40270031738282,227.60192925834656C242.02670031738282,226.02992925834656,240.56370031738282,224.69392925834657,238.9997003173828,223.31292925834657C236.9997003173828,220.99992925834655,236.9997003173828,220.99992925834655,237.14070031738282,218.76992925834656C238.2077003173828,215.32992925834657,239.8977003173828,212.43392925834655,241.7497003173828,209.37492925834655C255.7237003173828,185.42492925834657,260.5067003173828,159.66992925834657,253.4757003173828,132.57092925834655C245.9957003173828,106.01792925834656,229.30070031738282,84.46382925834656,205.2497003173828,70.83982925834655C182.27170031738282,58.38132925834656,155.1677003173828,55.15242925834656,130.0177003173828,62.58592925834656C103.34670031738281,71.01652925834655,83.11200031738281,87.78962925834655,69.78120031738281,112.31992925834656C57.55350031738281,136.84192925834657,56.14380031738281,163.70692925834655,64.46090031738281,189.69092925834656C68.61630031738281,201.80392925834656,74.94450031738282,212.09892925834654,83.00000031738281,221.99992925834655C83.78380031738281,223.05192925834655,84.56750031738281,224.10392925834657,85.37500031738281,225.18792925834657C102.32070031738282,243.34392925834655,127.20470031738282,254.82292925834656,151.9337003173828,256.22292925834654C163.4067003173828,256.56092925834656,174.6237003173828,255.17992925834656,185.6487003173828,251.92192925834655C191.8047003173828,250.22892925834657,197.57470031738282,250.06392925834655,203.56270031738282,252.37492925834655C209.92070031738282,256.66992925834654,215.2507003173828,262.81692925834653,220.1247003173828,268.68792925834657C222.18770031738282,271.1659292583466,224.36570031738282,273.2739292583466,226.81270031738282,275.3749292583466C229.9477003173828,278.07292925834656,233.04570031738282,280.79492925834654,236.06270031738282,283.6249292583466C236.83770031738283,284.3389292583466,237.61170031738283,285.0529292583466,238.4097003173828,285.78892925834657C239.9997003173828,287.9999292583466,239.9997003173828,287.9999292583466,240.12870031738282,290.4999292583466C238.55070031738282,293.99492925834653,236.05570031738282,295.47092925834653,232.8747003173828,297.3749292583466C232.2507003173828,297.7599292583466,231.62770031738282,298.14492925834656,230.98470031738282,298.54192925834656C213.9407003173828,308.8249292583466,195.5307003173828,315.2379292583466,175.52770031738282,315.40592925834653C174.4467003173828,315.41792925834653,173.36570031738282,315.42892925834656,172.25270031738282,315.44092925834656C169.96870031738283,315.45992925834656,167.6857003173828,315.47292925834654,165.40170031738282,315.4809292583466C161.99770031738282,315.4999292583466,158.5967003173828,315.56192925834654,155.19370031738282,315.6249292583466C116.35570031738281,315.99692925834654,77.49750031738282,300.4519292583466,49.00000031738281,273.9999292583466C48.425100317382814,273.4689292583466,47.850200317382814,272.93792925834657,47.25780031738281,272.39092925834655C21.15180031738281,247.99492925834656,1.4091203173828124,211.89592925834657,-0.3193356826171875,175.67492925834657C-0.5112915036171874,169.76292925834656,-0.5271758826171875,163.85292925834656,-0.4999999826171875,157.93792925834657C-0.4979095826171875,156.89492925834656,-0.4958038826171875,155.85192925834656,-0.4936523826171875,154.77792925834655C-0.4308623826171875,139.64492925834656,0.03981031738281249,125.43692925834655,5.0000003173828125,110.99992925834655C5.294710317382813,110.10792925834656,5.589420317382812,109.21692925834655,5.893070317382812,108.29792925834656C13.450700317382813,85.84092925834656,24.94430031738281,65.41702925834656,41.59520031738281,48.43992925834656C43.02780031738281,46.97152925834656,44.43040031738281,45.478329258346555,45.832000317382814,43.98042925834656C73.87690031738282,14.454529258346557,113.86270031738282,-0.8291857416534424,154.10370031738282,-0.5214843416534424Z" fill="#FFFFFF" fill-opacity="1" style="mix-blend-mode:passthrough"/></g><g><path d="M193.99962127685546,103.99998023681641C197.54062127685546,106.8108802368164,200.79862127685547,109.80998023681641,203.99962127685546,112.99998023681641C204.63762127685547,113.6148802368164,205.27662127685545,114.22978023681641,205.93362127685546,114.86328023681641C216.80362127685547,126.16948023681641,221.60162127685547,141.9270802368164,221.43762127685545,157.3124802368164C221.42962127685547,158.3150802368164,221.42262127685547,159.3176802368164,221.41462127685548,160.35058023681643C221.02662127685545,177.91788023681642,214.34562127685547,191.6122802368164,201.99962127685546,203.9996802368164C201.38462127685546,204.6376802368164,200.77062127685548,205.2756802368164,200.13662127685546,205.9336802368164C188.05422127685546,217.5506802368164,171.86782127685547,221.5296802368164,155.57152127685546,221.41968023681642C138.19942127685547,220.9096802368164,122.96882127685546,214.1006802368164,110.66012127685548,201.8866802368164C98.26668127685546,188.4376802368164,93.41671727685547,171.79648023681642,93.76171877685547,153.82028023681642C94.89496127685547,135.6511802368164,102.54930127685547,120.11468023681641,116.00002127685548,107.99998023681641C137.51432127685547,90.5141102368164,170.83862127685546,88.0522502368164,193.99962127685546,103.99998023681641Z" fill="#FFFFFF" fill-opacity="1" style="mix-blend-mode:passthrough"/></g></g></svg>