<svg xmlns="http://www.w3.org/2000/svg" xmlns:xlink="http://www.w3.org/1999/xlink" fill="none" version="1.1" width="256" height="256" viewBox="0 0 256 256"><defs><clipPath id="master_svg0_34_0289"><rect x="0" y="0" width="256" height="256" rx="0"/></clipPath><clipPath id="master_svg1_34_6"><rect x="0" y="0" width="256" height="256" rx="0"/></clipPath><linearGradient x1="1.5842006206512451" y1="-2.765439748764038" x2="-0.9438562679269205" y2="-0.2410212432454808" id="master_svg2_34_0283"><stop offset="0.009999999747378752%" stop-color="#A4D756" stop-opacity="1"/><stop offset="100%" stop-color="#00B6E7" stop-opacity="1"/></linearGradient><linearGradient x1="1.0726783275604248" y1="-1.0932564735412598" x2="-0.32392530274974984" y2="0.4156313071624279" id="master_svg3_34_0284"><stop offset="0.009999999747378752%" stop-color="#A4D756" stop-opacity="1"/><stop offset="100%" stop-color="#00B6E7" stop-opacity="1"/></linearGradient><linearGradient x1="0.47231996059417725" y1="0.5199645161628723" x2="-0.891013658099366" y2="1.9534125767422532" id="master_svg4_34_0285"><stop offset="0.009999999747378752%" stop-color="#A4D756" stop-opacity="1"/><stop offset="100%" stop-color="#00B6E7" stop-opacity="1"/></linearGradient><linearGradient x1="0.7469464540481567" y1="-0.11233625560998917" x2="-0.1342593582536343" y2="0.9131400126928095" id="master_svg5_34_0286"><stop offset="0.009999999747378752%" stop-color="#A4D756" stop-opacity="1"/><stop offset="100%" stop-color="#00B6E7" stop-opacity="1"/></linearGradient><linearGradient x1="0.8765324354171753" y1="-0.46453413367271423" x2="-0.12999427736684127" y2="0.7300243893825661" id="master_svg6_34_0287"><stop offset="0.009999999747378752%" stop-color="#A4D756" stop-opacity="1"/><stop offset="100%" stop-color="#00B6E7" stop-opacity="1"/></linearGradient><linearGradient x1="0.6317242383956909" y1="0.16723549365997314" x2="-0.3246678213052566" y2="1.2225612464028464" id="master_svg7_34_0288"><stop offset="0.009999999747378752%" stop-color="#A4D756" stop-opacity="1"/><stop offset="100%" stop-color="#00B6E7" stop-opacity="1"/></linearGradient></defs><g clip-path="url(#master_svg0_34_0289)"><g clip-path="url(#master_svg1_34_6)"><g><path d="M26.146400451660156,199.61399841308594C36.708400451660154,214.30499841308594,50.25650045166016,226.59799841308595,65.90230045166015,235.68599841308594C81.54820045166016,244.77399841308593,98.93830045166015,250.45199841308593,116.93200045166016,252.34799841308595C107.67500045166015,238.41699841308593,94.21800045166016,225.59999841308593,77.41830045166016,215.84199841308595C60.61860045166016,206.08399841308594,42.82750045166016,200.75399841308592,26.146400451660156,199.61399841308594Z" fill="url(#master_svg2_34_0283)" fill-opacity="1" style="mix-blend-mode:passthrough"/></g><g><path d="M99.99251022949218,176.98803862304686C67.62611022949218,158.18499762304688,32.594710229492186,153.39300862304688,7.5286102294921875,161.85799862304688C9.948430229492187,169.85603862304689,13.139800229492188,177.59903862304688,17.057600229492188,184.97903862304688C38.83581022949219,184.47503862304688,62.61381022949219,190.39003862304688,84.7394102294922,203.24103862304688C106.86501022949219,216.09203862304688,123.78661022949218,233.8280386230469,134.1426102294922,253.00003862304686C142.4986102294922,252.74303862304686,150.8106102294922,251.6790386230469,158.96261022949218,249.82203862304686C153.89561022949218,223.85803862304687,132.34961022949219,195.79603862304688,99.99251022949218,176.98803862304686Z" fill="url(#master_svg3_34_0284)" fill-opacity="1" style="mix-blend-mode:passthrough"/></g><g><path d="M254.2288967895508,100.66300619888305C250.11289678955077,83.92500619888305,242.66789678955078,68.18770619888306,232.3358967895508,54.39090619888306C222.00389678955077,40.59420619888306,208.99689678955076,29.020906198883058,194.0929967895508,20.36210619888306C179.1889967895508,11.703396198883057,162.69299678955076,6.136746198883056,145.58999678955078,3.9946101988830565C128.48699678955077,1.8524661988830566,111.12799678955078,3.1787501988830567,94.54889678955078,7.894256198883057C122.24599678955079,11.283896198883056,152.9899967895508,21.681406198883057,183.13999678955076,39.19720619888306C213.2908967895508,56.712906198883054,237.57289678955078,78.26650619888305,254.2288967895508,100.66300619888305Z" fill="url(#master_svg4_34_0285)" fill-opacity="1" style="mix-blend-mode:passthrough"/></g><g><path d="M213.9304800453186,162.04897893066408C199.7534800453186,138.50497893066407,175.4674800453186,115.95897893066406,145.5504800453186,98.57927893066406C115.6324800453186,81.19917893066406,84.0241800453186,71.27189593066406,56.572680045318606,70.61519623066407C32.4218800453186,70.04319793066406,14.296000045318603,77.06389893066407,6.855840045318604,89.87227893066407C6.813470045318604,89.94857893066407,6.754150045318603,90.02057893066406,6.707540045318604,90.09687893066406C6.038100045318604,92.49917893066406,5.461870045318603,94.90577893066407,4.9364800453186035,97.32087893066407C15.325580045318603,93.21947893066407,27.362880045318605,90.93577893066407,40.74758004531861,90.68157893066406C70.51238004531861,90.12227893066407,103.8239800453186,99.64277893066406,134.5634800453186,117.50197893066405C165.30248004531862,135.36097893066406,190.0934800453186,159.59197893066408,204.3464800453186,185.71677893066408C210.73648004531861,197.48777893066406,214.7234800453186,209.07577893066406,216.3034800453186,220.14677893066406C218.1424800453186,218.50277893066405,219.9474800453186,216.80377893066407,221.6974800453186,215.03677893066407C221.7434800453186,214.95677893066406,221.7734800453186,214.87177893066405,221.8204800453186,214.78677893066407C229.26048004531862,201.96577893066407,226.3834800453186,182.74677893066405,213.9304800453186,162.04897893066408Z" fill="url(#master_svg5_34_0286)" fill-opacity="1" style="mix-blend-mode:passthrough"/></g><g><path d="M121.761,137.6189C76.3363,110.9906,26.1388,106.81983,2,125.4027C2.0474136,131.2192,2.488125,137.0256,3.31909,142.7821C10.41991,140.6102,17.738300000000002,139.2426,25.1389,138.7044C52.1135,136.6565,81.8522,144.2397,108.839,160.0674C135.827,175.8951,157.1,198.2166,168.703,222.857C171.91,229.607,174.356,236.699,175.996,244C181.364,241.876,186.584,239.388,191.619,236.553C195.661,206.186,167.2,164.25119999999998,121.761,137.6189Z" fill="url(#master_svg6_34_0287)" fill-opacity="1" style="mix-blend-mode:passthrough"/></g><g><path d="M237.49589834594727,122.64097157592774C223.15789834594727,99.12177157592774,198.65889834594728,76.51317157592774,168.52989834594726,59.01867157592773C138.40089834594727,41.524071575927735,106.66999834594726,31.440099575927736,79.12949834594727,30.630800275927733C58.135198345947266,30.024900575927735,41.873598345947265,35.113501575927735,33.441898345947266,44.72727157592773C68.45219834594727,38.79550157592773,114.63099834594726,48.765071575927735,159.39089834594728,74.76757157592773C204.14989834594726,100.76997157592774,235.69889834594727,135.95427157592775,247.87589834594726,169.30327157592774C252.04989834594727,157.22427157592773,248.41889834594727,140.57727157592774,237.49589834594727,122.64097157592774Z" fill="url(#master_svg7_34_0288)" fill-opacity="1" style="mix-blend-mode:passthrough"/></g></g></g></svg>